<?xml version="1.0" encoding="UTF-8"?>
<svg version="1.1" xmlns="http://www.w3.org/2000/svg" width="512" height="512">
<path d="M0 0 C1.51158691 0.01135986 1.51158691 0.01135986 3.05371094 0.02294922 C10.49828369 0.18782256 16.81807893 1.12209546 23.5625 4.4375 C24.47644531 4.86160156 25.39039063 5.28570312 26.33203125 5.72265625 C33.53019986 9.33684161 39.57508349 14.09650586 45.5625 19.4375 C46.41352295 20.19595215 46.41352295 20.19595215 47.28173828 20.96972656 C69.65288956 41.07308434 69.65288956 41.07308434 76.5625 51.4375 C78.75218408 49.10620816 80.9391242 46.77236281 83.125 44.4375 C83.7746875 43.74414551 84.424375 43.05079102 85.09375 42.33642578 C85.73441406 41.6504834 86.37507812 40.96454102 87.03515625 40.2578125 C87.62562744 39.62633301 88.21609863 38.99485352 88.82446289 38.34423828 C90.62102803 36.373291 92.34677283 34.35396556 94.0625 32.3125 C108.40314984 15.80994315 127.50360012 1.8826657 150.01928711 0.26049805 C171.18363292 -0.24403712 187.31647743 2.75231507 203.921875 16.890625 C216.45308106 28.97693617 223.48456237 44.88484554 224.5625 62.19921875 C224.5625 80.08037074 218.53169776 96.97535589 206.171875 110.01953125 C191.16207564 123.92831239 174.30157646 129.10574086 154.1953125 128.75390625 C128.41070274 127.71539568 108.42377703 113.22595117 91.37109375 95.109375 C90.2964102 93.88259006 89.23496871 92.64398983 88.19140625 91.390625 C86.06856062 88.84524654 83.84706577 86.39654032 81.625 83.9375 C80.46677734 82.65359375 80.46677734 82.65359375 79.28515625 81.34375 C78.43244141 80.40015625 78.43244141 80.40015625 77.5625 79.4375 C72.64620858 84.27844596 67.9638256 89.32738568 63.265625 94.37890625 C47.05913647 111.74300111 28.07050375 128.03361941 3.26269531 128.95678711 C-16.36622959 129.23833652 -32.71740916 123.54152219 -47.19140625 109.80859375 C-59.32742792 96.99717609 -65.2459618 80.88662997 -65.4375 63.4375 C-64.59855403 48.6627293 -60.02209782 36.42500146 -51.4375 24.4375 C-50.98890625 23.80328125 -50.5403125 23.1690625 -50.078125 22.515625 C-38.22180644 7.31164003 -18.81344454 -0.19946937 0 0 Z " fill="#2D4356" transform="translate(176.4375,191.5625)"/>
<path d="M0 0 C7.47927469 4.85162617 13.80094616 12.64880753 20.08422852 18.95385742 C21.95409753 20.82914563 23.82932899 22.69895465 25.70507812 24.56835938 C26.89615461 25.76009565 28.0869214 26.95214155 29.27734375 28.14453125 C29.83767807 28.70284134 30.39801239 29.26115143 30.97532654 29.83638 C35.90273969 34.79397211 35.90273969 34.79397211 36.3125 39.875 C36.25340627 42.82968653 36.06564964 43.89058393 34.5 46.5 C31.68149626 48.19110225 29.43084277 48.75503898 26.1328125 48.56640625 C21.78787969 47.41253215 19.05569221 44.13842756 16 41 C15.10023437 40.11183594 14.20046875 39.22367187 13.2734375 38.30859375 C10.83055439 35.8897954 8.40852273 33.4529422 6 31 C5.78297436 39.31096892 6.32275081 47.2301417 7.625 55.4375 C7.80248779 56.56349609 7.97997559 57.68949219 8.1628418 58.84960938 C16.64379137 109.82885994 45.6415117 158.71033894 87.3984375 189.46484375 C99.59628232 198.17907265 112.39067685 205.72875469 126 212 C127.134375 212.53109375 128.26875 213.0621875 129.4375 213.609375 C180.30720055 236.45363867 237.34607908 235.25850936 289.06542969 216.14208984 C294.98996741 213.83635045 300.62314815 211.1242026 306.16845703 208.02246094 C308.10826877 206.93955883 310.06595708 205.89482337 312.02734375 204.8515625 C333.20708405 193.43739158 353.84281412 177.80552384 369 159 C369.80566406 158.03191406 370.61132812 157.06382812 371.44140625 156.06640625 C382.95627846 142.0174696 392.51072054 126.54409147 400 110 C400.30244629 109.33323242 400.60489258 108.66646484 400.91650391 107.97949219 C407.6603915 92.88037745 412.1947697 77.06652794 416 61 C421.61 61.66 427.22 62.32 433 63 C426.72978815 115.04275835 394.77596553 166.31554714 353.984375 198.6953125 C352.99953125 199.45585937 352.0146875 200.21640625 351 201 C350.45923828 201.42249023 349.91847656 201.84498047 349.36132812 202.28027344 C310.09799773 232.78623218 262.15476798 248.48569104 212.625 248.375 C211.70480072 248.37445618 210.78460144 248.37391235 209.83651733 248.37335205 C194.55351749 248.33197821 179.96589106 247.31778905 165 244 C164.04254883 243.79632813 163.08509766 243.59265625 162.09863281 243.3828125 C112.43084917 232.55714018 66.10026393 203.27220617 35 163 C34.57750977 162.45923828 34.15501953 161.91847656 33.71972656 161.36132812 C4.17613378 123.33663091 -10.43110647 77.76054164 -13 30 C-13.50450684 30.50974365 -14.00901367 31.0194873 -14.52880859 31.54467773 C-16.80827034 33.84488095 -19.09157761 36.14122877 -21.375 38.4375 C-22.1690625 39.23994141 -22.963125 40.04238281 -23.78125 40.86914062 C-24.92207031 42.01479492 -24.92207031 42.01479492 -26.0859375 43.18359375 C-27.1385376 44.24404907 -27.1385376 44.24404907 -28.21240234 45.32592773 C-31.29003326 48.20810681 -33.83096559 48.35338069 -38.0234375 48.26953125 C-40 48 -40 48 -42.5 46.5 C-44.19909247 43.66817922 -44.75981138 41.41479589 -44.55419922 38.1027832 C-42.38143862 29.85873606 -31.00363978 21.85270104 -25.04614258 15.91577148 C-23.17085437 14.04590247 -21.30104535 12.17067101 -19.43164062 10.29492188 C-18.23990435 9.10384539 -17.04785845 7.9130786 -15.85546875 6.72265625 C-15.29715866 6.16232193 -14.73884857 5.60198761 -14.16362 5.02467346 C-9.70439254 0.59259121 -6.42289366 -1.32382454 0 0 Z " fill="#2C4255" transform="translate(44,232)"/>
<path d="M0 0 C0.92759125 0.00182281 1.8551825 0.00364563 2.81088257 0.00552368 C16.1936565 0.04982078 29.19488162 0.44135782 42.3125 3.3125 C43.1482959 3.48410645 43.9840918 3.65571289 44.84521484 3.83251953 C82.59902886 11.66029754 117.11117748 28.07971422 146.3125 53.3125 C147.23417969 54.10398438 148.15585937 54.89546875 149.10546875 55.7109375 C159.39657269 64.77496227 168.94286719 74.43629902 177.3125 85.3125 C177.73354004 85.85181152 178.15458008 86.39112305 178.58837891 86.94677734 C208.13495572 124.97221848 222.74347057 170.54943164 225.3125 218.3125 C225.81700684 217.80275635 226.32151367 217.2930127 226.84130859 216.76782227 C229.12077034 214.46761905 231.40407761 212.17127123 233.6875 209.875 C234.4815625 209.07255859 235.275625 208.27011719 236.09375 207.44335938 C236.85429687 206.67958984 237.61484375 205.91582031 238.3984375 205.12890625 C239.4510376 204.06845093 239.4510376 204.06845093 240.52490234 202.98657227 C243.60253326 200.10439319 246.14346559 199.95911931 250.3359375 200.04296875 C252.3125 200.3125 252.3125 200.3125 254.8125 201.8125 C256.51159247 204.64432078 257.07231138 206.89770411 256.86669922 210.2097168 C254.69393862 218.45376394 243.31613978 226.45979896 237.35864258 232.39672852 C235.48335437 234.26659753 233.61354535 236.14182899 231.74414062 238.01757812 C230.55240435 239.20865461 229.36035845 240.3994214 228.16796875 241.58984375 C227.60965866 242.15017807 227.05134857 242.71051239 226.47612 243.28782654 C223.07107685 246.67214175 221.49875917 248.14887805 216.6875 248.8125 C207.34282624 248.59175967 198.50006825 235.65216708 192.22827148 229.35864258 C190.35840247 227.48335437 188.48317101 225.61354535 186.60742188 223.74414062 C185.41634539 222.55240435 184.2255786 221.36035845 183.03515625 220.16796875 C182.47482193 219.60965866 181.91448761 219.05134857 181.33717346 218.47612 C176.40976031 213.51852789 176.40976031 213.51852789 176 208.4375 C176.05909373 205.48281347 176.24685036 204.42191607 177.8125 201.8125 C180.63100374 200.12139775 182.88165723 199.55746102 186.1796875 199.74609375 C190.52462031 200.89996785 193.25680779 204.17407244 196.3125 207.3125 C197.21226562 208.20066406 198.11203125 209.08882812 199.0390625 210.00390625 C201.48194561 212.4227046 203.90397727 214.8595578 206.3125 217.3125 C206.52952564 209.00153108 205.98974919 201.0823583 204.6875 192.875 C204.42126831 191.18600586 204.42126831 191.18600586 204.1496582 189.46289062 C195.537112 137.69260865 165.83676178 88.31649274 123.10205078 57.5703125 C77.06410817 25.21185679 21.96133503 11.40239575 -33.875 20.24609375 C-70.07910715 26.56594855 -102.10148732 41.46884969 -130.6875 64.3125 C-131.29577637 64.79831543 -131.90405273 65.28413086 -132.53076172 65.78466797 C-156.50594243 85.15247252 -174.99763388 110.28012292 -187.6875 138.3125 C-187.98994629 138.97926758 -188.29239258 139.64603516 -188.60400391 140.33300781 C-195.3478915 155.43212255 -199.8822697 171.24597206 -203.6875 187.3125 C-209.2975 186.6525 -214.9075 185.9925 -220.6875 185.3125 C-214.41728815 133.26974165 -182.46346553 81.99695286 -141.671875 49.6171875 C-140.68703125 48.85664062 -139.7021875 48.09609375 -138.6875 47.3125 C-138.14673828 46.89000977 -137.60597656 46.46751953 -137.04882812 46.03222656 C-97.66512629 15.43274426 -49.66574679 -0.20264029 0 0 Z " fill="#2C4255" transform="translate(255.6875,31.6875)"/>
<path d="M0 0 C9.98247483 8.02483381 18.40701238 19.06903469 19.9375 32.1875 C21.08319617 46.76908765 17.28374694 60.16172014 7.8125 71.375 C-2.03850963 81.69587687 -14.31683289 87.11926213 -28.625 87.625 C-54.001028 86.38988359 -71.703176 71.90147721 -88.1328125 53.921875 C-89.79653894 52.0268682 -91.43257953 50.11160124 -93.0625 48.1875 C-94.37279864 46.68557666 -95.68527648 45.1855515 -97 43.6875 C-98.02096137 42.52094538 -99.04181696 41.35429815 -100.0625 40.1875 C-95.86990596 34.3198367 -91.29445896 29.02023469 -86.3125 23.8125 C-85.60585205 23.07080566 -84.8992041 22.32911133 -84.17114258 21.56494141 C-82.77013608 20.09779984 -81.36696819 18.63271855 -79.96142578 17.16992188 C-78.35625158 15.49416789 -76.76672686 13.80587679 -75.18359375 12.109375 C-55.7166458 -8.26373907 -24.44265869 -16.97592871 0 0 Z " fill="#80D8E2" transform="translate(364.0625,216.8125)"/>
<path d="M0 0 C10.76814736 9.02487995 20.66611762 19.3517754 30.171875 29.68359375 C30.72198242 30.27841553 31.27208984 30.8732373 31.83886719 31.48608398 C33.45033214 33.85280842 33.97488441 35.51359598 34.125 38.375 C32.97607422 40.296875 32.97607422 40.296875 31.1796875 42.125 C30.52145996 42.80949219 29.86323242 43.49398437 29.18505859 44.19921875 C28.46398926 44.91722656 27.74291992 45.63523437 27 46.375 C26.2673291 47.12394531 25.5346582 47.87289062 24.77978516 48.64453125 C23.28121156 50.17271836 21.77647064 51.69488205 20.265625 53.2109375 C18.36334733 55.13404303 16.50238537 57.08574184 14.65625 59.0625 C3.38886066 70.99287954 -11.43349786 82.18865227 -28.34765625 83.578125 C-43.16302086 83.8462764 -55.98857332 78.7976928 -66.8046875 68.640625 C-76.40839009 58.13091273 -80.30678481 45.94363416 -80.1484375 31.9140625 C-79.16607373 19.19946851 -73.2929146 8.31714421 -64.1875 -0.4375 C-44.00978003 -17.57474162 -20.24546927 -15.61703384 0 0 Z " fill="#80D8E2" transform="translate(207.875,220.625)"/>
<path d="M0 0 C0.33 0 0.66 0 1 0 C1.70752842 14.77948245 -1.46262631 27.74793972 -11.125 39.1875 C-20.97600963 49.50837687 -33.25433289 54.93176213 -47.5625 55.4375 C-72.938528 54.20238359 -90.640676 39.71397721 -107.0703125 21.734375 C-108.73403894 19.8393682 -110.37007953 17.92410124 -112 16 C-113.31029864 14.49807666 -114.62277648 12.9980515 -115.9375 11.5 C-116.95833333 10.33333333 -117.97916667 9.16666667 -119 8 C-117.68 6.68 -116.36 5.36 -115 4 C-114.59273682 4.43755615 -114.18547363 4.8751123 -113.76586914 5.32592773 C-109.19399869 10.23315897 -104.60202556 15.12105128 -100 20 C-99.13761719 20.91910156 -98.27523438 21.83820313 -97.38671875 22.78515625 C-83.0963129 37.59806323 -66.16231455 45.41665123 -45.5625 46.5625 C-33.92219742 46.24673347 -22.30272664 41.0792578 -14 33 C-13.36707031 32.39414062 -12.73414063 31.78828125 -12.08203125 31.1640625 C-3.53075432 22.22989258 -1.17685373 12.03201197 0 0 Z " fill="#64B2B7" transform="translate(383,249)"/>
<path d="M0 0 C8.90457545 7.15831889 16.83307189 16.57686217 18.9375 28.1875 C18.97638349 30.52050933 18.9823635 32.85459801 18.9375 35.1875 C17.05376808 32.36190212 15.73495062 29.63785413 14.3125 26.5625 C8.47367912 14.89892769 -0.47665704 6.49364821 -13 2.3125 C-29.89981976 -2.01941582 -46.21446323 0.69651713 -61.27734375 9.30078125 C-66.73846313 13.00024922 -71.37875764 17.57484311 -76.0625 22.1875 C-76.97644531 23.074375 -77.89039063 23.96125 -78.83203125 24.875 C-83.49278738 29.45889209 -87.89929302 34.14782839 -92.0625 39.1875 C-93.3825 38.5275 -94.7025 37.8675 -96.0625 37.1875 C-94.7879631 33.5475957 -93.3818871 31.11213046 -90.71875 28.33203125 C-90.05447998 27.63190918 -89.39020996 26.93178711 -88.70581055 26.21044922 C-87.99851807 25.48100098 -87.29122559 24.75155273 -86.5625 24 C-85.83780518 23.24477051 -85.11311035 22.48954102 -84.36645508 21.71142578 C-82.92294128 20.2104803 -81.47615449 18.7126747 -80.02587891 17.21826172 C-78.38971888 15.52594897 -76.77348765 13.81889875 -75.16796875 12.09765625 C-55.72511449 -8.28750112 -24.42008601 -16.96025151 0 0 Z " fill="#9CDFE6" transform="translate(364.0625,216.8125)"/>
<path d="M0 0 C0.33 0 0.66 0 1 0 C1.07476562 0.87140625 1.14953125 1.7428125 1.2265625 2.640625 C2.72942526 16.25479353 7.66489364 26.82382262 18 36 C29.35900898 44.32679773 41.99823253 47.58972032 56 46 C73.92270537 41.7736852 86.42040508 29.64136053 99 17 C99.65484375 16.35675781 100.3096875 15.71351563 100.984375 15.05078125 C101.56703125 14.47714844 102.1496875 13.90351563 102.75 13.3125 C103.34296875 12.73113281 103.9359375 12.14976562 104.546875 11.55078125 C106.09641804 10.04486026 106.09641804 10.04486026 107 8 C107.66 8 108.32 8 109 8 C109.66 6.68 110.32 5.36 111 4 C111.99 4.66 112.98 5.32 114 6 C113.78223649 11.66185133 109.98507998 14.68701994 106.25 18.5 C105.57332275 19.2019751 104.89664551 19.9039502 104.19946289 20.62719727 C102.8074606 22.0670929 101.41103685 23.50272709 100.01025391 24.93408203 C98.18539208 26.8094744 96.39126684 28.70861311 94.60546875 30.62109375 C83.30079063 42.56696368 68.48881428 53.80976565 51.52734375 55.203125 C36.71197914 55.4712764 23.88642668 50.4226928 13.0703125 40.265625 C4.22900346 30.5902302 -0.19406481 19.21241655 -0.0625 6.1875 C-0.05347656 5.02605469 -0.04445313 3.86460937 -0.03515625 2.66796875 C-0.02355469 1.78753906 -0.01195313 0.90710938 0 0 Z " fill="#64B2B8" transform="translate(128,249)"/>
<path d="M0 0 C11.15816195 9.34656382 22.05890642 19.97709223 31.125 31.375 C30.465 33.025 29.805 34.675 29.125 36.375 C26.10668412 35.05004335 24.36536974 33.74934571 22.3125 31.1875 C10.61977892 17.47103873 -3.09404593 2.66932902 -20.875 -2.625 C-21.50148437 -2.81449219 -22.12796875 -3.00398437 -22.7734375 -3.19921875 C-34.76369429 -5.62847152 -47.35251555 -2.97435982 -57.49609375 3.65234375 C-67.80691196 11.11879831 -73.84801741 19.29405224 -77.875 31.375 C-78.205 31.375 -78.535 31.375 -78.875 31.375 C-79.91291074 22.44896766 -75.82385283 13.54731663 -70.5625 6.5 C-50.95626285 -16.51418824 -23.4923401 -18.12161849 0 0 Z " fill="#9CDFE6" transform="translate(207.875,220.625)"/>
<path d="M0 0 C0.99 0.66 1.98 1.32 3 2 C2.67 3.65 2.34 5.3 2 7 C-0.86724686 6.42655063 -1.8614515 6.1385485 -4 4 C-3.34 4 -2.68 4 -2 4 C-1.34 2.68 -0.68 1.36 0 0 Z " fill="#77B5B9" transform="translate(239,253)"/>
<path d="M0 0 C1.32 1.32 2.64 2.64 4 4 C3.01 5.485 3.01 5.485 2 7 C0.68 6.34 -0.64 5.68 -2 5 C-2 2 -2 2 0 0 Z " fill="#79B7BB" transform="translate(267,253)"/>
</svg>
